<svg xmlns="http://www.w3.org/2000/svg" width="20" height="20" viewBox="0 0 20 20"><defs><style>.cls-1{fill:#fff;}</style></defs><g id="Calque_2" data-name="Calque 2"><g id="Calque_1-2" data-name="Calque 1"><path class="cls-1" d="M20,5.88a7.35,7.35,0,0,0-.47-2.43,4.84,4.84,0,0,0-1.15-1.77A4.92,4.92,0,0,0,16.56.53,7.35,7.35,0,0,0,14.13.06C13.06,0,12.72,0,10,0S7,0,5.88.06A7.65,7.65,0,0,0,3.45.52,5,5,0,0,0,1.68,1.68,4.92,4.92,0,0,0,.53,3.45,7.3,7.3,0,0,0,.06,5.88C0,7,0,7.29,0,10s0,3.06.06,4.12a7.53,7.53,0,0,0,.46,2.43,5.19,5.19,0,0,0,2.93,2.93,7.59,7.59,0,0,0,2.43.46C6.94,20,7.28,20,10,20s3.06,0,4.12-.06a7.53,7.53,0,0,0,2.43-.46,5.15,5.15,0,0,0,2.93-2.93,7.59,7.59,0,0,0,.46-2.43c0-1.06.06-1.4.06-4.12S20,7,20,5.88Zm-1.8,8.17a5.52,5.52,0,0,1-.35,1.85,3.29,3.29,0,0,1-1.9,1.9,5.34,5.34,0,0,1-1.85.34c-1.06.05-1.37.06-4,.06s-3,0-4-.06a5.35,5.35,0,0,1-1.86-.34A3,3,0,0,1,3,17.05a3.08,3.08,0,0,1-.74-1.14,5.4,5.4,0,0,1-.35-1.86c0-1.06-.06-1.37-.06-4s0-3,.06-4a5.34,5.34,0,0,1,.35-1.86A3,3,0,0,1,3,3a3,3,0,0,1,1.14-.75A5.47,5.47,0,0,1,6,1.88c1.06,0,1.37-.06,4-.06s3,0,4,.06a5.35,5.35,0,0,1,1.86.34A3,3,0,0,1,17.06,3a3.08,3.08,0,0,1,.74,1.14A5.66,5.66,0,0,1,18.15,6c0,1.06.06,1.37.06,4S18.19,13,18.15,14.05ZM10,4.86A5.14,5.14,0,1,0,15.14,10,5.14,5.14,0,0,0,10,4.86Zm0,8.47A3.33,3.33,0,1,1,13.34,10,3.33,3.33,0,0,1,10,13.33Zm5.35-9.87a1.2,1.2,0,1,0,1.2,1.2A1.2,1.2,0,0,0,15.35,3.46Z"/></g></g></svg>