<?xml version="1.0" encoding="UTF-8"?>
<svg xmlns="http://www.w3.org/2000/svg" version="1.1" viewBox="0 0 366 94.9">
  <defs>
    <style>
      .cls-1 {
        font-size: 48px;
      }

      .cls-1, .cls-2 {
        font-family: Calibri-Bold, Calibri;
        font-weight: 700;
      }

      .cls-1, .cls-3 {
        fill: #0265a8;
      }

      .cls-2 {
        font-size: 27.5px;
        stroke: #fff;
        stroke-miterlimit: 10;
      }

      .cls-3 {
        fill-rule: evenodd;
      }
    </style>
  </defs>
  <!-- Generator: Adobe Illustrator 28.6.0, SVG Export Plug-In . SVG Version: 1.2.0 Build 709)  -->
  <g>
    <g id="Good">
      <path class="cls-3" d="M17.9,73c-.5,2,.4,3.1,2.4,3.5,3.1-1.3,6.1-2.8,9.1-4.5,2.1-.5,4.2-.5,6.3,0,3,1.8,6.1,3.3,9.4,4.5,3.4-1.5,6.7-3,10.1-4.5,5.3-.6,9.8,1.2,13.2,5.2-.5,2.3-.9,4.6-1.4,7,0,1.1.5,1.9,1.4,2.4,8.6.5,17.2.5,25.8,0l1-1c.6-26.7.5-53.4-.3-80.1-4.7-.2-9.3,0-13.9.7-1.5,6.9-2.8,13.9-3.8,20.9-2.5,2.3-5.4,3.6-8.7,3.8-4.5-3.6-9.6-4.8-15.3-3.5-2.9,1.1-5.7,2.4-8.4,3.8-3.5-2.6-7.5-4.2-11.8-4.9-5.5.9-10.5,2.9-15,6.3-.5,2.2.4,3.2,2.8,2.8,2.4-.6,4.6-1.6,6.6-3.1,5.5-2,10.3-1.1,14.6,2.8,2.1.5,4.2.5,6.3,0,6.3-5.1,12.6-5.1,18.8,0,2.8.7,5.5.3,8-1-.3,5.4-1,10.7-2.1,16-1.1,1.1-2.4,1.4-3.8,1-8-6-16-5.9-24,.3-2.3-1.2-4.5-2.5-6.6-3.8-4.5-1.5-8.9-1.2-13.2.7-2.7,1.7-5.2,3.4-7.7,5.2.3,1.7,1.3,2.4,3.1,2.1,2.9-.8,5.5-2.1,8-3.8,2.6-.5,5.1-.5,7.7,0,2.7,2,5.7,3.3,9.1,3.8,3-.7,5.8-2,8.4-3.8,2.6-.5,5.1-.5,7.7,0,3.1,2.5,6.5,3.7,10.4,3.8-.7,5.4-1.6,10.7-2.8,16-4.6-4-10-5.2-16-3.8-2.7,1.3-5.4,2.6-8,3.8-2.6-1-5-2.3-7.3-3.8-4-.5-7.9-.3-11.8.7-2.5,1.8-5.2,3.3-8,4.5ZM71.9,81.7c4.4-24,8.5-48,12.5-72.1h7c0,24.1,0,48.3,0,72.4-6.5.1-13,0-19.5-.3Z"/>
    </g>
    <g id="Layer">
      <text class="cls-1" transform="translate(102.9 35.9)"><tspan x="0" y="0">AquaRooms</tspan></text>
      <text class="cls-2" transform="translate(141.6 77.3)"><tspan x="0" y="0">Salles dՃvents</tspan></text>
    </g>
  </g>
</svg>