<svg xmlns="http://www.w3.org/2000/svg" width="14" height="14" viewBox="0 0 14 14"><defs><style>.cls-1{fill:#0265a8;}</style></defs><g id="Calque_2" data-name="Calque 2"><g id="Calque_1-2" data-name="Calque 1"><path class="cls-1" d="M13.57,12.71l-1,1a1.81,1.81,0,0,1-.72.29A11.75,11.75,0,0,1,0,2.11a1.77,1.77,0,0,1,.29-.68l1-1A1.65,1.65,0,0,1,2.84.06l.21.07a2,2,0,0,1,1.14,1.2l.5,1.85a1.76,1.76,0,0,1-.41,1.57l-.66.67a7.05,7.05,0,0,0,5,5l.67-.67a1.8,1.8,0,0,1,1.57-.41l1.84.5A2,2,0,0,1,13.87,11l.07.21A1.65,1.65,0,0,1,13.57,12.71Z"/></g></g></svg>