<svg xmlns="http://www.w3.org/2000/svg" width="24" height="16" viewBox="0 0 24 16"><defs><style>.cls-1{fill:#fff;}</style></defs><g id="Calque_2" data-name="Calque 2"><g id="Calque_1-2" data-name="Calque 1"><path class="cls-1" d="M23.51,2.5a2.93,2.93,0,0,0-2.12-2C19.51,0,12,0,12,0S4.49,0,2.61.47a3,3,0,0,0-2.12,2A29,29,0,0,0,0,8a28.93,28.93,0,0,0,.49,5.5,3,3,0,0,0,2.12,2C4.51,16,12,16,12,16s7.51,0,9.39-.47a3,3,0,0,0,2.12-2A29,29,0,0,0,24,8,27.55,27.55,0,0,0,23.51,2.5ZM10,12V4l6,4Z"/></g></g></svg>